<svg width="615" height="570" viewBox="0 0 615 570" fill="none" xmlns="http://www.w3.org/2000/svg">
<path d="M17.8092 568.401H552.794C561.489 568.401 568.603 558.05 568.603 545.398V304.535C568.603 291.883 561.489 281.531 552.794 281.531H17.8092C9.11416 281.531 2 291.883 2 304.535V545.417C2 558.05 9.11416 568.401 17.8092 568.401Z" fill="url(#paint0_linear_610_403)" stroke="url(#paint1_linear_610_403)" stroke-width="3.18711" stroke-miterlimit="10"/>
<path d="M74.2299 333.246H57.9529V317.735H109.359V333.258H93.1636V400.292H74.2299V333.246Z" fill="white"/>
<path d="M116.539 317.734H135.507V348.942H149.812V317.734H168.873V400.29H149.812V364.894H135.507V400.29H116.539V317.734Z" fill="white"/>
<path d="M224.934 365.3H199.933V384.976H228.229L226.013 400.29H181.336V317.734H226.071V333.257H199.933V349.87H224.934V365.3Z" fill="white"/>
<path d="M307.422 373.839C307.422 361.007 307.619 343.942 307.863 333.976H307.329C304.904 351.193 301.459 379.106 297.746 400.29H282.42C279.532 378.259 276.098 350.473 273.835 333.779H273.22C273.626 343.478 273.986 360.172 273.986 374.465V400.29H257.292V317.734H283.998C286.713 334.962 289.416 355.682 290.669 367.261H291.052C292.63 354.963 295.739 337.039 298.848 317.734H325.288V400.29H307.433V373.839H307.422Z" fill="white"/>
<path d="M381.17 365.3H356.168V384.976H384.465L382.249 400.29H337.571V317.734H382.307V333.257H356.168V349.87H381.17V365.3Z" fill="white"/>
<path d="M442.883 373.839C442.883 361.007 443.08 343.942 443.324 333.976H442.79C440.366 351.193 436.92 379.106 433.208 400.29H417.882C414.993 378.259 411.559 350.473 409.297 333.779H408.682C409.088 343.478 409.448 360.172 409.448 374.465V400.29H392.753V317.734H419.46C422.174 334.962 424.878 355.682 426.131 367.261H426.513C428.091 354.963 431.2 337.039 434.31 317.734H460.75V400.29H442.895V373.839H442.883Z" fill="white"/>
<path d="M516.623 365.3H491.621V384.976H519.917L517.702 400.29H473.024V317.734H517.76V333.257H491.621V349.87H516.623V365.3Z" fill="white"/>
<path d="M57.9529 413.457H518.942" stroke="url(#paint2_linear_610_403)" stroke-width="1.8284" stroke-miterlimit="10"/>
<path d="M119.635 446.414V518.622H103.222V469.874L96.666 518.622H85.0253L78.1122 470.989V518.622H61.6993V446.414H86.0065C86.7201 450.755 87.4783 455.869 88.2811 461.756L90.8679 480.132L95.1496 446.414H119.635ZM218.056 446.414L228.804 518.622H209.582L208.645 505.643H201.91L200.795 518.622H181.35L190.894 446.414H218.056ZM208.11 492.843C207.158 484.666 206.207 474.572 205.255 462.559C203.352 476.356 202.163 486.45 201.687 492.843H208.11ZM290.474 446.414H322.274V460.864H309.251V474.557H320.847V488.294H309.251V518.622H290.474V446.414ZM404.103 446.414V518.622H385.327V446.414H404.103ZM502.524 446.414L513.273 518.622H494.05L493.113 505.643H486.379L485.264 518.622H465.818L475.362 446.414H502.524ZM492.578 492.843C491.627 484.666 490.675 474.572 489.724 462.559C487.821 476.356 486.631 486.45 486.156 492.843H492.578Z" fill="#CDFC3E"/>
<g opacity="0.8">
<path d="M599.174 568.401C606.97 568.401 613.29 562.081 613.29 554.286C613.29 546.49 606.97 540.171 599.174 540.171C591.379 540.171 585.059 546.49 585.059 554.286C585.059 562.081 591.379 568.401 599.174 568.401Z" stroke="white" stroke-width="1.76389"/>
<path d="M595.722 562.391H593.566V546.521H599.561C601.259 546.521 602.586 546.949 603.528 547.791C604.499 548.619 604.984 549.789 604.984 551.287C604.984 552.386 604.713 553.314 604.171 554.07C603.643 554.827 602.886 555.369 601.916 555.698L605.141 562.391H602.743L599.775 556.111H595.707V562.391H595.722ZM595.722 548.447V554.199H599.589C600.588 554.199 601.359 553.942 601.901 553.428C602.458 552.914 602.729 552.201 602.729 551.302C602.729 550.374 602.444 549.675 601.873 549.189C601.316 548.69 600.545 548.447 599.561 548.447H595.722Z" fill="white"/>
</g>
<mask id="mask0_610_403" style="mask-type:luminance" maskUnits="userSpaceOnUse" x="137" y="37" width="324" height="323">
<path d="M298.815 359.82C387.838 359.82 460.004 287.654 460.004 198.631C460.004 109.609 387.838 37.4419 298.815 37.4419C209.793 37.4419 137.626 109.609 137.626 198.631C137.626 287.654 209.793 359.82 298.815 359.82Z" fill="white"/>
</mask>
<g mask="url(#mask0_610_403)">
<path d="M324.918 279.374C322.506 277.846 320.951 276.876 320.951 276.876C320.951 276.876 317.497 277.946 313.444 279.374H324.918Z" fill="white"/>
<path d="M199.452 279.371C190.318 270.051 183.781 263.415 183.781 263.415C183.781 263.415 172.506 272.021 163.229 279.371H199.452Z" fill="#324A54"/>
<path d="M251.3 367.572C248.76 367.015 246.448 366.13 244.449 364.889C231.319 364.132 218.289 362.548 205.929 358.98C198.55 356.854 195.525 350.003 196.081 343.324C195.068 343.366 194.055 343.423 193.027 343.452C185.035 343.752 174.388 344.679 164.939 343.095L170.548 380.402L253.312 367.971C252.642 367.843 251.971 367.715 251.3 367.572Z" fill="#324A54"/>
<path d="M422.884 279.372L419.915 259.676L355.106 241.793L364.911 279.372H422.884Z" fill="#324A54"/>
<path d="M396.321 279.37C391.939 276.716 383.547 273.976 383.162 272.705C382.648 271.021 387.6 261.216 388.129 259.603C388.4 258.761 375.098 250.341 362.196 242.42C362.125 242.377 362.11 242.363 362.11 242.363C350.108 234.984 338.462 228.048 338.462 228.048L333.124 241.621C333.124 241.621 339.147 260.36 343.485 279.37H396.321Z" fill="#324A54"/>
<path d="M328.913 279.374C327.857 274.508 318.766 273.08 313.656 276.948C312.458 277.861 311.316 278.661 310.274 279.374H328.913Z" fill="#6F8C93"/>
<path d="M313.685 279.375C314.599 279.261 315.541 279.247 316.468 279.375H343.557C340.074 264.19 335.308 246.878 335.308 246.878L311.887 253.757L307.249 276.35L307.234 276.364L306.621 279.375H313.685Z" fill="white"/>
<path d="M313.685 279.368C314.598 279.254 315.54 279.24 316.468 279.368H318.709C318.166 278.911 317.667 278.512 317.353 278.383C316.439 278.012 316.382 277.898 316.682 275.971C316.996 274.03 316.611 266.994 317.581 261.97C318.537 256.947 320.764 255.234 320.764 255.234L319.793 254.749L313 255.933C313 255.933 312.172 257.303 311.33 261.371C310.488 265.424 307.791 274.815 307.691 275.272C307.662 275.386 307.505 275.8 307.262 276.342L307.248 276.357L306.635 279.368H313.685Z" fill="#C1C1C1"/>
<path d="M276.262 279.372H309.417C310.344 278.387 311.229 277.245 312.028 275.889C312.028 275.889 312.085 258.677 314.797 253.439C317.509 248.202 255.81 161.256 255.81 161.256L233.446 162.469L231.962 162.555C231.962 162.555 234.431 194.667 231.933 219.458C231.919 219.472 231.919 219.472 231.919 219.472C231.491 223.682 230.934 227.693 230.178 231.289C230.178 231.275 246.605 265.542 276.262 279.372Z" fill="#324A54"/>
<path d="M299.298 279.375H309.417C310.344 278.391 311.229 277.249 312.028 275.893C312.028 275.893 312.085 258.681 314.797 253.443L306.733 256.654C306.733 256.654 304.635 261.863 302.195 263.862C299.754 265.845 299.397 268.043 299.44 268.9C299.483 269.742 299.868 271.74 299.44 272.839C299.198 273.424 299.612 276.578 299.298 279.375Z" fill="#7D9BA5"/>
<path d="M231.921 219.456C232.007 219.128 232.093 218.7 232.178 218.158C234.176 205.027 234.191 163.181 234.191 163.181L233.434 162.482L231.95 162.568C231.95 162.554 234.419 194.666 231.921 219.456Z" fill="#7D9BA5"/>
<path d="M236.516 279.368H277.134C251.131 267.351 232.534 235.439 230.393 231.642C230.322 231.528 230.25 231.4 230.179 231.271C231.678 226.048 232.391 216.914 232.734 209.307C233.048 202.199 233.034 196.433 233.034 196.433C233.034 196.433 227.881 201.585 223.657 207.68C219.589 213.531 214.009 225.719 214.537 229.002C214.894 231.343 215.836 251.895 236.516 279.368Z" fill="white"/>
<path d="M230.18 231.273C231.679 226.05 232.393 216.915 232.735 209.308C231.865 210.807 230.766 212.634 229.481 214.703C225.97 220.369 226.884 225.236 230.18 231.273Z" fill="#C1C1C1"/>
<path d="M211.57 138.62C214.439 145.171 221.075 156.474 224.044 160.87C227.027 165.266 238.915 165.951 238.915 165.951C238.915 165.951 245.837 193.268 247.778 198.077C249.705 202.887 261.551 223.553 269.943 231.16C278.349 238.753 303.054 256.722 309.619 257.549C316.184 258.363 329.929 255.908 333.839 251.798C334.995 250.585 336.265 248.501 337.493 246.075C337.493 246.075 337.493 246.06 337.507 246.06C340.447 240.294 343.23 232.644 344.072 230.604C345.086 228.106 347.426 225.409 349.481 221.398C349.81 220.756 350.138 220.071 350.452 219.357C351.822 216.203 353.335 211.978 354.762 207.668C354.762 207.654 354.762 207.654 354.762 207.625C355.661 204.899 356.517 202.131 357.26 199.59C359.201 193.039 365.209 177.34 365.209 177.34C365.766 175.684 366.308 173.829 366.793 171.86C367.107 170.575 367.421 169.233 367.707 167.892C369.12 161.341 370.047 154.49 370.019 150.822C370.005 149.053 370.047 147.44 370.105 146.084C370.219 143.158 370.418 141.36 370.418 141.36C370.418 141.36 381.265 51.5742 305.694 46.8073C245.452 42.9967 230.309 75.8511 226.798 97.3306C225.128 107.478 226.07 115.085 226.07 115.085C226.07 115.085 216.451 108.32 209.8 113.23C203.107 118.111 208.701 132.069 211.57 138.62Z" fill="#7D9BA5"/>
<path d="M331.125 209.894C331.125 209.894 328.299 217.572 327.386 217.001C326.472 216.43 327.814 210.907 327.814 210.907L331.125 209.894Z" fill="#6F8C93"/>
<path d="M332.396 179.614C332.41 179.671 332.41 179.699 332.41 179.699L334.28 179.713C334.266 179.642 334.266 179.571 334.266 179.514C333.895 175.589 339.247 174.718 339.589 174.675C336.692 174.633 334.951 175.275 333.909 176.131C332.824 177.045 332.496 178.158 332.41 178.9L332.396 179.057C332.382 179.314 332.396 179.514 332.396 179.614Z" fill="white"/>
<path d="M328.787 234.356C328.787 234.356 332.069 234.585 336.322 233.828C337.079 233.686 336.565 235.969 333.068 236.925C329.572 237.882 326.774 237.867 324.776 238.395C322.778 238.924 326.675 235.413 326.675 235.413L328.787 234.356Z" fill="#6F8C93"/>
<path d="M211.57 138.622C214.439 145.173 221.075 156.476 224.044 160.872C225.3 162.713 228.097 163.912 230.951 164.654C234.905 165.71 238.915 165.953 238.915 165.953C238.915 165.953 245.837 193.27 247.778 198.08C248.535 199.978 250.832 204.317 253.844 209.355C253.958 209.554 254.058 209.74 254.144 209.883C258.768 217.547 264.948 226.652 269.929 231.162C278.335 238.755 303.04 256.724 309.605 257.552C307.536 256.453 305.181 253.941 304.182 250.53C303.14 246.962 305.323 243.279 308.891 242.28C309.362 242.152 309.862 242.038 310.376 241.952C316.156 240.896 320.951 239.34 325.561 238.199C330.171 237.071 330.842 234.93 331.841 233.945C332.826 232.961 336.779 229.121 337.079 228.793C337.379 228.465 334.638 230.292 330.285 231.12C325.79 231.976 324.405 232.19 318.654 232.533C318.568 232.504 318.482 232.49 318.397 232.475C317.512 231.862 314.4 228.522 321.851 227.409C321.865 227.395 321.851 227.38 321.851 227.366C323.064 227.009 324.048 225.996 325.204 225.768C326.617 225.468 332.069 224.74 333.996 224.455C335.923 224.169 338.492 223.084 340.461 221.857C342.417 220.63 344.286 218.888 344.215 218.389C344.144 217.889 343.087 218.817 340.09 219.345C337.093 219.887 333.311 218.66 329.786 219.102C326.261 219.545 326.289 219.716 324.234 220.373C323.549 220.587 323.106 220.558 322.735 220.401C323.877 215.349 325.718 212.68 325.718 212.68C333.04 210.982 333.325 206.143 334.581 201.947C335.823 197.737 334.153 188.318 333.539 183.008C332.926 177.699 333.925 175.944 337.764 174.93C341.603 173.931 351.308 177.499 361.384 174.131C363.568 173.403 365.409 172.818 366.793 171.905C367.693 168.365 368.449 164.483 369.02 160.929C369.662 156.876 370.033 153.222 370.019 150.867C370.005 149.098 370.047 147.485 370.105 146.129L364.952 142.604L335.024 140.791C335.024 140.791 306.665 135.125 294.006 132.913C281.346 130.701 262.008 115.815 255.756 112.989C250.033 110.392 232.207 99.6021 226.798 97.3613C225.128 107.509 226.07 115.116 226.07 115.116C226.07 115.116 219.819 110.72 213.911 111.591C213.911 111.591 213.896 111.591 213.868 111.591C212.455 111.805 211.07 112.304 209.8 113.246C203.107 118.113 208.701 132.071 211.57 138.622Z" fill="#324A54"/>
<path d="M317.526 231.615C317.526 231.615 318.297 232.429 320.395 232.429C322.493 232.429 318.439 233.942 318.439 233.942C318.439 233.942 316.926 233.828 316.841 233.685C316.755 233.542 316.47 232.6 316.47 232.6L317.526 231.615Z" fill="#1A2B33"/>
<path d="M354.732 207.639C355.631 204.913 356.488 202.144 357.23 199.604C359.171 193.053 365.179 177.354 365.179 177.354C365.736 175.698 366.278 173.843 366.764 171.873C367.078 170.589 367.392 169.247 367.677 167.906C367.677 167.906 366.093 173.086 361.354 174.1C361.354 174.1 362.082 176.298 361.283 181.179C360.47 186.045 358.1 189.085 356.002 194.808C353.904 200.503 355.346 205.755 354.732 207.582C354.732 207.611 354.732 207.625 354.732 207.639Z" fill="white"/>
<path d="M355.363 171.66C357.603 171.646 360.215 170.333 360.215 170.333C360.829 172.117 361.371 174.086 361.371 174.086C363.612 173.587 365.396 172.773 366.78 171.86C367.679 168.32 368.436 164.438 369.007 160.885L360.244 162.198C360.244 162.198 360.986 162.797 361.985 163.924C362.998 165.052 365.125 165.566 365.125 165.566C364.14 166.736 362.085 167.107 362.085 167.107C359.787 170.361 355.363 171.66 355.363 171.66Z" fill="white"/>
<path d="M320.737 204.458C321.408 205.7 325.033 208.183 328.373 208.24C329.771 208.254 331.199 209.139 329.9 210.438C328.601 211.737 325.704 212.65 325.704 212.65C327.845 212.679 331.598 210.838 333.154 208.711C334.71 206.599 336.979 204.587 338.049 204.215C339.234 203.802 339.933 204.544 339.833 205.4C340.604 204.858 341.789 201.861 341.403 199.349C341.103 197.365 339.633 196.195 338.734 195.438C338.163 196.58 338.563 197.864 338.378 198.293C338.178 198.706 336.551 191.371 336.551 191.371C335.666 188.53 334.838 184.363 334.267 179.51C334.139 178.411 334.01 177.284 333.91 176.128C332.826 177.041 332.497 178.155 332.412 178.897L332.397 179.054C332.397 179.254 332.397 179.439 332.383 179.625C332.426 186.204 333.653 191.67 332.34 194.353C330.242 198.606 324.819 200.448 322.792 200.276C320.409 200.062 318.982 201.218 320.737 204.458Z" fill="white"/>
<path d="M236.987 279.374C216.606 252.043 214.722 233.304 214.551 229.65V229.636C214.522 229.207 214.537 228.993 214.537 228.993C187.134 248.032 169.965 276.591 170.079 279.36H236.987V279.374Z" fill="#1A2B33"/>
<path d="M175.347 279.374C175.004 279.203 174.69 279.031 174.433 278.874C173.634 278.389 173.334 277.362 173.734 276.52C186.236 250.416 214.538 229.65 214.538 229.65V229.636C214.509 229.207 214.524 228.993 214.524 228.993C187.121 248.032 169.952 276.591 170.066 279.36H175.347V279.374Z" fill="#CDFC3E"/>
<path d="M238.915 165.954C238.915 165.954 245.837 193.271 247.778 198.081C248.534 199.979 250.832 204.318 253.844 209.356C252.202 206.273 248.477 197.11 246.95 191.716C245.623 187.034 242.212 173.105 240.571 166.14L238.915 165.954Z" fill="#7D9BA5"/>
<path d="M337.493 246.059C340.433 240.293 343.216 232.643 344.058 230.602C345.071 228.105 347.412 225.407 349.467 221.397C349.467 221.397 347.755 223.452 345.657 225.365C344.258 226.635 342.588 227.263 341.546 229.247C338.949 234.199 340.119 239.08 337.493 246.059Z" fill="white"/>
<path d="M211.57 138.62C214.438 145.171 221.075 156.475 224.043 160.871C225.299 162.712 228.097 163.911 230.951 164.653C230.723 164.567 227.083 163.183 225.057 159.843C222.973 156.389 210.642 137.464 208.701 122.165C207.616 113.559 213.368 111.689 213.853 111.575C212.44 111.789 211.056 112.288 209.785 113.23C203.106 118.111 208.701 132.069 211.57 138.62Z" fill="#7D9BA5"/>
<path d="M343.427 218.045C343.427 218.045 341.871 218.83 339.688 219.03C337.504 219.23 332.951 218.602 331.025 218.63C329.098 218.659 327.414 219.173 327.414 219.173C327.414 219.173 328.841 218.216 331.067 218.117C333.308 217.988 339.873 219.415 343.427 218.045Z" fill="white"/>
<path d="M384.759 260.692C384.245 262.305 378.308 271.553 380.706 273.88C382.304 275.435 388.099 277.234 392.323 279.375H396.305C391.924 276.72 383.532 273.98 383.146 272.71C382.632 271.025 387.585 261.22 388.113 259.608C388.384 258.766 375.082 250.345 362.18 242.424C363.708 243.523 385.273 259.137 384.759 260.692Z" fill="#CDFC3E"/>
<path d="M438.339 314.679C438.453 314.65 438.567 314.636 438.667 314.608C441.907 313.851 445.161 314.451 448.016 315.921C447.802 315.079 447.53 313.994 447.202 312.724H438.596C438.553 313.366 438.468 314.022 438.339 314.679Z" fill="#324A54"/>
<path d="M436.439 279.376C436.325 279.133 436.225 278.877 436.111 278.634C429.36 263.277 419.912 259.695 419.912 259.695L416.429 279.39H436.439V279.376Z" fill="#324A54"/>
<path d="M367.391 237.065C367.391 237.065 370.36 232.055 369.204 226.532C368.048 221.009 364.437 210.918 369.889 203.896C369.889 203.896 363.452 207.207 364.308 216.399C364.808 221.779 367.363 225.533 368.033 229.757C368.419 232.212 367.948 235.281 367.391 237.065Z" fill="white"/>
<path d="M370.176 226.547C370.176 226.547 369.02 222.294 369.149 220.082C369.277 217.869 370.719 214.644 372.374 212.203C374.415 209.206 372.888 205.481 372.888 205.481C372.888 205.481 375.942 209.149 374.401 213.088C373.245 216.014 368.806 218.84 370.176 226.547Z" fill="white"/>
<path d="M369.861 213.545C369.861 213.545 366.693 209.991 368.634 204.654C369.761 201.571 370.061 196.775 369.162 194.192C369.162 194.192 370.832 195.905 370.946 200.515C371.06 205.125 368.263 207.936 369.861 213.545Z" fill="white"/>
</g>
<path d="M416.986 141.089C402.728 153.007 373.898 165.152 345.026 163.168C280.059 158.701 266.486 132.726 244.336 122.15C227.98 114.343 195.996 109.148 185.449 93.9343C177.857 83.0018 184.95 68.1446 198.137 66.3748C206.073 65.3187 217.747 66.8601 234.231 75.7516C284.298 102.726 310.445 97.5879 345.197 100.828C379.95 104.067 467.852 98.5585 416.986 141.089Z" fill="#1A2B33"/>
<path d="M235.343 78.0341C235.343 78.0341 215.034 66.545 199.748 68.486C193.283 69.3138 187.774 73.8666 186.347 80.2177C186.219 80.7886 186.119 81.388 186.062 82.0017C186.062 82.0017 188.402 76.6069 195.767 74.8086C211.195 71.0407 234.401 85.9408 234.401 85.9408" fill="#304249"/>
<path d="M379.137 104.954C379.137 104.954 424.166 105.896 427.977 118.013C432.244 131.6 400.76 149.711 390.156 153.222C380.665 156.377 357.843 163.47 331.055 160.301C304.266 157.133 252.273 119.897 237.801 113.075C237.801 113.075 236.588 111.719 280.546 126.162C308.362 135.311 358.685 132.899 378.938 125.021C378.053 117.699 379.409 114.759 379.137 104.954Z" fill="#324A54"/>
<path d="M378.934 125.048C378.934 125.048 380.033 111.903 380.86 96.175C381.103 91.3368 381.317 86.2559 381.488 81.2464C381.703 73.8249 381.603 60.2378 381.26 52.0884C381.146 49.6479 381.017 47.7069 380.875 46.5509C380.461 43.2397 379.704 39.3434 378.291 35.5613C378.22 35.3901 378.177 35.2474 378.134 35.1475C378.106 35.0618 378.063 34.9762 378.035 34.8906C375.722 29.039 371.84 23.53 365.29 20.8753C355.684 16.9933 341.526 20.0047 328.724 22.8306H328.682C323.173 24.0437 317.92 25.2141 313.382 25.7707C300.023 15.6803 288.82 -1.53189 276.917 0.109407C256.907 2.84965 235.271 43.4395 229.676 84.058C227.549 99.4861 322.716 137.122 378.934 125.048Z" fill="#1A2B33"/>
<path d="M308.075 27.8416C317.909 35.2203 333.679 38.4315 343.17 38.9311C348.565 39.2165 355.401 40.3726 361.81 41.7855C365.178 42.3136 370.459 41.6428 367.205 34.521C363.95 27.3849 358.912 23.7884 352.39 22.1899C346.196 20.6913 330.325 22.6038 328.713 22.8036C341.515 19.992 355.658 16.9663 365.278 20.8483C371.829 23.5029 375.711 29.012 378.023 34.8635C378.051 34.9492 378.094 35.0348 378.123 35.1204C378.166 35.2346 378.208 35.3773 378.28 35.5343C379.693 39.3164 380.449 43.2127 380.863 46.5238C380.877 46.6808 380.906 46.8521 380.92 47.0234C380.92 47.0519 380.92 47.0805 380.934 47.109C381.048 48.2936 381.163 49.992 381.248 52.0614C381.248 52.0614 381.248 52.0614 381.234 52.0614C381.577 60.2108 381.691 73.7978 381.477 81.2193C381.32 86.2289 381.091 91.324 380.849 96.148C373.299 97.8321 355.644 99.6018 355.644 99.6018C355.644 99.6018 359.869 58.2841 352.804 52.2755C345.739 46.2812 343.213 48.2079 325.559 43.5267C307.918 38.8597 297.157 24.4449 288.18 14.3545C279.231 4.26412 271.196 4.20703 271.196 4.20703C283.955 -1.14502 298.242 20.4487 308.075 27.8416Z" fill="#324A54"/>
<path d="M381.036 92.5794C381.036 92.5794 381.579 92.5081 381.436 92.8934C381.293 93.2645 381.208 102.513 380.979 106.138C380.751 109.763 379.481 123.921 379.466 124.049C379.452 124.178 379.852 124.72 378.924 125.063C378.924 125.063 327.116 139.92 290.565 102.399C335.651 101.871 366.921 95.6051 376.227 93.6356C378.282 93.1931 379.937 92.8221 381.036 92.5794Z" fill="#CDFC3E"/>
<path d="M376.641 94.4732L380.795 93.4028L378.497 124.801L376.641 94.4732Z" fill="white"/>
<path d="M371.219 37.0413C372.304 44.634 373.36 52.2982 374.402 59.9908C375.801 70.3381 377.128 80.5998 378.384 90.79C378.969 84.2106 379.183 78.6445 379.269 74.3771C379.383 68.4685 379.24 64.5294 379.155 62.4314C378.926 57.4932 378.57 54.4532 378.27 52.3838C377.257 45.3334 376.072 43.0641 375.473 42.0365C374.088 39.6673 372.418 38.0403 371.219 37.0413Z" fill="white"/>
<path d="M414.178 112.511C414.463 111.955 417.432 112.497 419.829 114.11C420.543 114.595 424.125 117.007 424.225 120.703C424.339 124.329 421.085 128.068 416.204 129.081C417.018 128.425 421.257 124.957 420.6 121.231C420.329 119.633 419.202 118.263 417.746 116.479C415.591 113.839 413.949 112.954 414.178 112.511Z" fill="white"/>
<path d="M378.854 250.057C391.484 253.369 404.101 256.68 416.732 259.991C411.822 260.333 404.301 260.276 395.623 257.793C388.287 255.681 382.65 252.555 378.854 250.057Z" fill="white"/>
<path d="M330.301 224.577C330.929 224.006 331.543 223.421 332.142 222.822C332.157 222.808 332.157 222.822 332.171 222.808C332.356 222.693 332.556 222.551 332.713 222.408C332.727 222.394 332.727 222.394 332.727 222.394C332.899 222.308 333.07 222.222 333.241 222.123C333.313 222.108 333.37 222.094 333.441 222.065C333.655 222.008 333.898 221.937 334.155 221.88C334.412 221.823 334.668 221.737 334.94 221.68C335.211 221.609 335.496 221.537 335.782 221.466C335.924 221.437 336.067 221.395 336.224 221.352C337.623 222.137 341.59 224.649 345.544 229.758C350.453 236.109 357.889 245.015 357.889 245.015C357.889 245.015 358.189 242.203 358.374 241.29C358.56 240.377 361.257 238.35 367.965 238.136C371.69 238.007 373.96 238.607 375.244 239.149C376.1 239.52 376.728 240.291 376.914 241.204C377.556 244.344 378.883 249.682 378.698 256.261C378.569 260.786 377.185 263.469 370.449 264.639C364.383 265.681 359.573 264.354 355.734 258.531C351.881 252.708 344.188 241.062 341.69 237.094C339.193 233.126 335.796 227.417 332.927 225.848C331.557 225.105 330.444 225.105 329.602 225.048C329.844 224.92 330.087 224.763 330.301 224.577ZM374.83 240.662C374.816 240.605 374.83 240.591 374.787 240.476C374.773 240.434 374.759 240.377 374.73 240.348L374.673 240.262C374.63 240.205 374.602 240.162 374.559 240.105C374.388 239.934 374.216 239.82 374.045 239.734C373.874 239.649 373.717 239.577 373.546 239.534C373.217 239.42 372.903 239.349 372.589 239.292C371.976 239.178 371.391 239.135 370.862 239.106C369.792 239.064 368.907 239.121 368.294 239.178C367.98 239.206 367.751 239.235 367.58 239.263C367.423 239.292 367.323 239.306 367.323 239.306C367.323 239.306 367.68 239.335 368.294 239.363C368.907 239.406 369.778 239.477 370.805 239.634C371.319 239.72 371.876 239.82 372.432 239.963C372.718 240.034 373.003 240.12 373.26 240.234C373.389 240.291 373.517 240.348 373.646 240.419C373.76 240.491 373.874 240.562 373.917 240.633C373.931 240.648 373.945 240.662 373.945 240.676C373.945 240.676 373.945 240.676 373.945 240.691C373.945 240.691 373.945 240.705 373.945 240.719C373.945 240.733 373.888 240.819 373.803 240.89C373.603 241.047 373.317 241.19 373.032 241.304C372.432 241.533 371.776 241.718 371.105 241.847C370.434 241.989 369.749 242.089 369.078 242.175C368.408 242.26 367.737 242.318 367.08 242.36C366.438 242.403 365.81 242.417 365.211 242.417C364.611 242.417 364.055 242.403 363.541 242.36C362.513 242.289 361.643 242.146 361.086 241.932C360.815 241.818 360.615 241.69 360.515 241.561C360.415 241.433 360.415 241.333 360.415 241.333C360.415 241.333 360.401 241.418 360.472 241.59C360.544 241.747 360.729 241.932 361 242.089C361.272 242.26 361.628 242.403 362.042 242.546C362.456 242.674 362.941 242.803 363.47 242.888C363.998 242.988 364.569 243.06 365.182 243.103C365.796 243.145 366.438 243.174 367.109 243.174C367.78 243.174 368.465 243.131 369.164 243.074C369.863 243.003 370.577 242.903 371.276 242.76C371.976 242.617 372.689 242.432 373.36 242.132C373.703 241.989 374.045 241.818 374.359 241.533C374.516 241.39 374.687 241.19 374.759 240.876C374.773 240.833 374.773 240.805 374.773 240.762V240.705V240.676C374.83 240.691 374.83 240.748 374.83 240.662ZM371.176 263.783C371.747 263.711 372.547 263.583 373.489 263.269C373.96 263.112 374.459 262.912 374.959 262.641C375.458 262.37 375.972 262.027 376.429 261.585C376.657 261.357 376.871 261.128 377.071 260.857C377.242 260.614 377.442 260.3 377.57 259.986C377.842 259.373 377.999 258.716 378.113 258.06C378.213 257.403 378.284 256.747 378.313 256.104C378.355 255.462 378.355 254.834 378.341 254.22C378.341 253.607 378.298 253.022 378.27 252.465C378.241 251.908 378.184 251.38 378.141 250.895C377.941 248.954 377.67 247.684 377.67 247.684C377.67 247.684 377.685 248.012 377.713 248.569C377.742 249.14 377.784 249.939 377.813 250.909C377.827 251.395 377.842 251.923 377.842 252.479C377.856 253.036 377.842 253.621 377.842 254.22C377.827 254.82 377.799 255.448 377.756 256.076C377.713 256.704 377.642 257.346 377.542 257.96C377.442 258.588 377.299 259.201 377.057 259.758C377.028 259.829 376.999 259.901 376.971 259.958L376.871 260.158C376.857 260.186 376.828 260.229 376.828 260.243L376.771 260.343C376.728 260.415 376.686 260.486 376.643 260.543C376.486 260.771 376.286 261.014 376.086 261.214C375.672 261.628 375.23 261.985 374.759 262.256C374.302 262.541 373.831 262.769 373.389 262.955C372.504 263.326 371.719 263.526 371.176 263.654C370.62 263.783 370.306 263.826 370.306 263.826C370.306 263.826 370.606 263.854 371.176 263.783ZM367.566 244.03C368.151 244.002 368.765 243.945 369.335 243.887C369.921 243.83 370.491 243.73 371.034 243.631C372.133 243.416 373.146 243.145 373.988 242.803C374.816 242.46 375.487 242.061 375.829 241.661C376 241.461 376.086 241.261 376.115 241.119C376.129 241.047 376.129 240.99 376.129 240.962C376.129 241.005 376.115 241.047 376.1 241.119C376.058 241.247 375.958 241.418 375.772 241.59C375.401 241.932 374.73 242.246 373.902 242.503C373.075 242.76 372.061 242.974 370.977 243.145C370.434 243.231 369.878 243.288 369.293 243.345C368.722 243.402 368.137 243.445 367.551 243.474C366.966 243.502 366.381 243.516 365.81 243.516C365.239 243.516 364.668 243.502 364.126 243.474C363.584 243.445 363.056 243.402 362.556 243.345C362.057 243.288 361.586 243.217 361.157 243.117C360.301 242.931 359.616 242.689 359.202 242.389C359.002 242.232 358.874 242.075 358.831 241.946C358.803 241.889 358.788 241.832 358.788 241.804C358.774 241.775 358.774 241.747 358.774 241.747C358.774 241.747 358.774 241.761 358.774 241.804C358.774 241.847 358.774 241.889 358.803 241.961C358.845 242.103 358.945 242.289 359.131 242.475C359.516 242.846 360.216 243.188 361.072 243.445C361.5 243.573 361.971 243.688 362.485 243.773C362.984 243.859 363.527 243.945 364.083 243.987C364.64 244.03 365.225 244.073 365.81 244.087C366.367 244.059 366.966 244.059 367.566 244.03ZM363.141 245.985C361.643 254.934 364.412 253.321 364.854 250.553C365.296 247.769 363.412 244.387 363.141 245.985ZM358.332 259.03C358.931 263.355 364.212 264.125 364.212 264.125C364.212 264.125 360.601 262.513 359.859 258.288C358.731 251.951 358.574 244.159 358.574 244.159C358.574 244.159 357.547 253.336 358.332 259.03ZM354.335 247.313C355.92 247.299 357.704 246.471 357.704 246.471C357.704 246.471 355.706 246.399 354.364 245.272C353.565 244.601 350.824 240.476 349.083 238.55C347.899 237.237 347.399 237.793 347.399 237.793C347.399 237.793 352.751 247.313 354.335 247.313ZM343.803 239.435C343.803 239.435 343.86 239.32 343.931 239.135C343.974 239.035 344.031 238.935 344.088 238.807C344.117 238.735 344.159 238.678 344.188 238.607C344.231 238.535 344.259 238.464 344.302 238.393C344.345 238.321 344.388 238.25 344.445 238.179C344.502 238.107 344.545 238.036 344.602 237.95C344.659 237.879 344.716 237.808 344.787 237.722C344.859 237.651 344.916 237.579 344.987 237.508C345.059 237.436 345.13 237.365 345.216 237.294C345.301 237.237 345.373 237.151 345.458 237.094C345.629 236.965 345.801 236.851 345.986 236.737C346.357 236.523 346.757 236.352 347.157 236.209C347.556 236.066 347.927 235.966 348.27 235.867C348.598 235.781 348.898 235.71 349.098 235.667C349.297 235.624 349.426 235.595 349.426 235.595C349.426 235.595 349.312 235.553 349.098 235.51C348.883 235.467 348.584 235.424 348.227 235.41C347.856 235.41 347.428 235.438 346.985 235.524C346.757 235.581 346.529 235.638 346.3 235.724C346.072 235.809 345.843 235.924 345.615 236.038C345.401 236.166 345.187 236.309 345.001 236.48C344.802 236.637 344.645 236.823 344.488 237.023C344.416 237.122 344.345 237.222 344.288 237.308C344.231 237.408 344.174 237.508 344.131 237.608C344.088 237.708 344.045 237.808 344.002 237.893C343.974 237.993 343.945 238.079 343.917 238.179C343.86 238.364 343.831 238.521 343.817 238.678C343.803 238.821 343.788 238.949 343.788 239.064C343.788 239.32 343.803 239.435 343.803 239.435ZM339.207 227.303C342.261 229.573 344.987 235.153 345.701 235.31C346.4 235.467 346.172 234.668 346.086 234.525C341.448 226.561 336.153 225.02 339.207 227.303Z" fill="white"/>
<path d="M344.374 239.45C344.403 239.393 344.417 239.322 344.46 239.25C344.503 239.179 344.545 239.093 344.588 239.008C344.631 238.922 344.702 238.837 344.774 238.737C344.831 238.637 344.916 238.551 345.002 238.465C345.073 238.366 345.173 238.28 345.259 238.194C345.345 238.109 345.459 238.023 345.559 237.937C345.659 237.852 345.758 237.766 345.873 237.695C345.987 237.623 346.087 237.538 346.187 237.481C346.287 237.409 346.386 237.352 346.486 237.281C346.586 237.224 346.686 237.167 346.772 237.11C346.943 237.01 347.1 236.924 347.2 236.881C347.3 236.824 347.371 236.796 347.371 236.796C347.371 236.796 347.3 236.81 347.186 236.838C347.072 236.867 346.915 236.924 346.715 237.01C346.615 237.053 346.515 237.095 346.415 237.152C346.315 237.21 346.201 237.267 346.087 237.324C345.973 237.381 345.858 237.466 345.758 237.538C345.644 237.609 345.544 237.709 345.43 237.78C345.33 237.88 345.23 237.966 345.13 238.066C345.045 238.166 344.945 238.266 344.874 238.366C344.802 238.465 344.717 238.565 344.66 238.665C344.602 238.765 344.545 238.865 344.503 238.965C344.46 239.065 344.431 239.151 344.403 239.222C344.374 239.308 344.36 239.379 344.346 239.436C344.317 239.55 344.303 239.622 344.303 239.622C344.303 239.622 344.331 239.55 344.374 239.45Z" fill="white"/>
<defs>
<linearGradient id="paint0_linear_610_403" x1="68.2512" y1="318.453" x2="607.062" y2="615.806" gradientUnits="userSpaceOnUse">
<stop offset="0.081971" stop-color="#171717"/>
<stop offset="0.75264" stop-color="#1E1E1E"/>
</linearGradient>
<linearGradient id="paint1_linear_610_403" x1="570.132" y1="424.965" x2="0.478487" y2="424.965" gradientUnits="userSpaceOnUse">
<stop stop-color="#B3B3B3"/>
<stop offset="1" stop-color="#4D4D4D"/>
</linearGradient>
<linearGradient id="paint2_linear_610_403" x1="-nan" y1="-nan" x2="-nan" y2="-nan" gradientUnits="userSpaceOnUse">
<stop stop-color="#B3B3B3"/>
<stop offset="1" stop-color="#4D4D4D"/>
</linearGradient>
</defs>
</svg>
